<?xml version="1.0" standalone="no"?>
<!DOCTYPE svg PUBLIC "-//W3C//DTD SVG 20010904//EN"
 "http://www.w3.org/TR/2001/REC-SVG-20010904/DTD/svg10.dtd">
<svg version="1.0" xmlns="http://www.w3.org/2000/svg"
 width="500.000000pt" height="500.000000pt" viewBox="0 0 500.000000 500.000000"
 preserveAspectRatio="xMidYMid meet">

<g transform="translate(0.000000,500.000000) scale(0.100000,-0.100000)"
fill="#000000" stroke="none">
<path d="M2 3188 c1 -997 4 -1770 5 -1717 l4 95 63 37 c35 21 105 59 156 86
50 26 101 56 112 65 27 23 65 37 83 30 8 -4 17 1 21 9 3 9 12 13 19 10 8 -2
42 9 75 26 34 17 66 29 71 26 5 -4 18 -3 29 0 20 6 20 16 20 473 1 514 13 976
30 1092 35 252 129 451 284 606 155 155 354 248 606 284 279 40 1629 36 1876
-5 470 -79 768 -374 849 -843 47 -266 47 -1660 0 -1924 -30 -173 -93 -330
-181 -454 -61 -86 -198 -211 -287 -262 -87 -50 -238 -106 -331 -123 l-65 -12
27 -32 c86 -99 104 -126 183 -270 12 -22 37 -62 56 -88 20 -26 49 -80 65 -119
16 -39 38 -85 49 -102 30 -50 25 -64 -23 -69 -24 -2 237 -4 580 -5 l622 -2 0
2500 0 2500 -2500 0 -2500 0 2 -1812z"/>
<path d="M1788 3990 c-299 -17 -454 -74 -589 -216 -172 -183 -200 -344 -197
-1174 1 -348 11 -770 16 -689 2 25 6 26 70 32 37 4 98 7 136 7 53 0 72 4 83
18 8 9 12 11 8 5 -4 -10 8 -13 47 -14 176 -3 252 -9 259 -21 5 -7 9 -9 9 -4 0
5 6 4 13 -1 6 -6 32 -13 57 -17 24 -4 50 -12 58 -19 8 -6 -7 19 -32 55 -190
272 -222 639 -83 940 117 255 336 440 613 520 69 20 100 23 249 22 155 0 178
-3 258 -27 375 -115 637 -429 676 -811 30 -290 -64 -549 -274 -762 -152 -154
-308 -236 -523 -274 -86 -15 -98 -19 -59 -19 44 -1 83 -13 97 -30 3 -4 18 -14
33 -24 15 -10 25 -22 22 -27 -3 -6 0 -7 8 -4 8 3 20 -3 28 -13 13 -16 12 -17
-3 -4 -10 7 -18 11 -18 8 0 -2 17 -17 38 -33 26 -19 32 -22 22 -8 -8 11 -1 5
16 -13 17 -18 34 -29 38 -26 3 3 6 -1 6 -10 0 -10 5 -17 10 -17 9 0 81 -71
135 -133 11 -13 13 -14 5 -3 -15 21 -15 21 8 2 12 -11 21 -26 20 -35 -2 -9 2
-16 9 -16 13 0 42 -25 29 -25 -4 0 6 -12 23 -27 17 -15 31 -35 31 -45 0 -10 5
-18 10 -18 6 0 10 -4 10 -10 0 -5 -15 -11 -32 -11 -19 -1 -25 -3 -15 -6 38
-10 313 17 387 38 130 36 197 74 288 164 137 137 185 271 202 571 13 219 13
1209 0 1428 -17 299 -65 434 -204 572 -114 114 -229 166 -431 194 -98 14
-1354 22 -1567 10z m1788 -314 c80 -37 124 -107 124 -198 0 -237 -316 -305
-424 -91 -9 18 -16 56 -16 89 0 168 163 271 316 200z m-2203 -1703 c-7 -2 -21
-2 -30 0 -10 3 -4 5 12 5 17 0 24 -2 18 -5z"/>
<path d="M2408 3100 c-233 -42 -420 -204 -486 -420 -66 -218 -9 -444 152 -605
122 -121 260 -177 436 -177 403 1 690 397 570 783 -59 192 -240 362 -432 408
-67 16 -184 21 -240 11z"/>
<path d="M1 658 l-1 -658 578 2 c317 1 557 3 532 5 -258 19 -445 75 -611 185
-109 72 -183 139 -252 230 -154 202 -219 406 -236 741 -6 106 -8 -46 -10 -505z"/>
</g>
</svg>
